# xmcd
#
# Track frame offsets:
#	150
#	16509
#	33540
#	49914
#	71963
#	91077
#	106839
#	123965
#	141986
#	164610
#	179915
#	197171
#	212069
#
# Disc length: 3023 seconds
#
# Revision: 1
# Processed by: cddbd v1.4PL0 Copyright (c) Steve Scherf et al.
# Submitted via: audiograbber 1.80.04
#
DISCID=be0bcd0d
DTITLE=Canta Brasil - Agita a galera
DYEAR=2000
DGENRE=Samba
TTITLE0=Swing de rua
TTITLE1=Desafio
TTITLE2=Bicicletinha
TTITLE3=Festa na Bahia
TTITLE4=Não foi à toa
TTITLE5=Cada macaco no seu galho (cho chúa)
TTITLE6=Agita a galera
TTITLE7=Sai da frente
TTITLE8=Toda mulher
TTITLE9=Inesquecível Bahia
TTITLE10=Queria eu
TTITLE11=Coração radiante
TTITLE12=Mulheres
EXTD=
EXTT0=
EXTT1=
EXTT2=
EXTT3=
EXTT4=
EXTT5=
EXTT6=
EXTT7=
EXTT8=
EXTT9=
EXTT10=
EXTT11=
EXTT12=
PLAYORDER=
